<?xml version="1.0" standalone="no"?>
<!DOCTYPE svg PUBLIC "-//W3C//DTD SVG 20010904//EN"
 "http://www.w3.org/TR/2001/REC-SVG-20010904/DTD/svg10.dtd">
<svg version="1.0" xmlns="http://www.w3.org/2000/svg"
 width="984.000000pt" height="984.000000pt" viewBox="0 0 984.000000 984.000000"
 preserveAspectRatio="xMidYMid meet">
<metadata>
Created by potrace 1.11, written by Peter Selinger 2001-2013
</metadata>
<g transform="translate(0.000000,984.000000) scale(0.100000,-0.100000)"
fill="#000000" stroke="none">
<path d="M1760 8965 c-179 -16 -452 -57 -526 -79 -68 -21 -135 -81 -164 -148
-22 -52 -23 -61 -28 -530 l-5 -477 -421 -3 c-414 -3 -422 -3 -463 -25 -61 -33
-110 -88 -133 -150 -20 -54 -20 -66 -20 -3203 0 -3137 0 -3149 20 -3203 36
-96 123 -164 224 -174 41 -4 86 5 231 45 1622 453 2923 440 4120 -40 83 -34
173 -72 200 -87 40 -20 64 -25 120 -25 61 -1 82 5 161 41 50 23 150 64 222 92
1192 461 2477 464 4094 11 80 -22 158 -40 174 -40 105 0 217 78 254 176 20 55
20 63 20 3204 0 3137 0 3149 -20 3203 -23 62 -72 117 -133 150 -41 22 -49 22
-444 25 l-402 3 -3 482 c-3 537 -1 516 -74 597 -68 75 -114 88 -449 122 -170
17 -717 17 -890 0 -1033 -104 -1842 -476 -2417 -1112 l-77 -85 -18 25 c-10 14
-46 59 -82 100 -530 620 -1340 1005 -2311 1100 -178 18 -589 20 -760 5z m656
-535 c970 -78 1772 -505 2187 -1162 l57 -91 0 -2509 c0 -1390 -4 -2508 -9
-2508 -4 0 -71 42 -147 93 -635 424 -1380 689 -2167 772 -212 22 -566 37 -684
30 l-103 -7 0 209 c0 114 7 1225 15 2468 8 1243 15 2355 15 2471 l0 212 113
11 c61 6 128 13 147 14 85 9 459 6 576 -3z m5862 -35 l22 -7 0 -2658 0 -2658
-192 5 c-750 22 -1516 -182 -2313 -615 -145 -78 -383 -221 -506 -302 -50 -33
-92 -60 -95 -60 -2 0 -4 1141 -4 2535 l0 2536 50 74 c113 167 317 382 490 517
450 348 1039 564 1730 633 140 14 772 14 818 0z m-7244 -1967 c-14 -1870 -20
-3695 -12 -3728 16 -58 56 -118 101 -148 78 -54 95 -56 360 -42 591 31 1197
-44 1707 -211 455 -150 892 -380 1254 -663 33 -25 56 -46 52 -46 -3 0 -71 20
-149 44 -334 104 -703 178 -1107 222 -198 21 -772 30 -1010 15 -404 -25 -790
-79 -1230 -172 -164 -35 -416 -94 -442 -104 -17 -7 -18 130 -18 2794 l0 2801
250 0 251 0 -7 -762z m8266 -2036 l0 -2799 -157 38 c-504 123 -1036 208 -1488
239 -194 13 -699 13 -885 0 -389 -28 -786 -96 -1155 -199 -77 -22 -141 -38
-143 -36 -4 4 329 214 463 290 605 347 1210 553 1770 605 172 16 476 12 643
-7 199 -24 286 -23 336 1 53 27 104 80 130 135 l21 46 3 2243 2 2242 230 0
230 0 0 -2798z"/>
</g>
</svg>
