<svg version="1" xmlns="http://www.w3.org/2000/svg" width="933.333" height="933.333" viewBox="0 0 700.000000 700.000000"><path d="M133.8 61.6c-.2.1-4.5.5-9.7.9-5.2.3-9.7.8-10 .9-.3.2-3.5.7-7 1-10.2 1.1-20.2 3.5-23.8 5.7-1.9 1.2-4.6 4-6.1 6.2l-2.7 4.1-.3 34.5c-.2 19-.5 34.7-.6 34.9-.2.1-13.2.2-29 .2-23.5.1-29.5.3-32.4 1.6-4.9 2-8.1 5.1-10.3 9.9C.1 165.4 0 173.9 0 389.6c0 123.3.3 225.7.7 227.5.4 2.1 2.4 5.1 5.3 8 6.9 6.9 10.4 7.2 27.9 2.5 7.5-2.1 14.3-3.9 15.1-4.1l8-2c3.6-1 7.9-1.9 9.5-2.2 1.7-.2 5.5-1.1 8.5-1.9 5.6-1.4 28.2-5.8 35.5-6.9 2.2-.3 5.8-.8 8-1.1 2.2-.3 5.1-.8 6.5-1 1.4-.2 5.2-.6 8.5-.9 3.3-.3 6.9-.8 8-1 12.5-2.6 72.9-2.6 90 0 1.7.2 4.9.7 7.1.9 4.4.5 21.6 3.3 24.9 4 27.5 6 54.9 14.7 74.1 23.6 9.6 4.5 15.3 4.5 25.4-.3 13.4-6.3 50.3-18.7 63-21.1 1.4-.3 5-1 8-1.6 10.9-2.2 20.3-3.9 26.5-4.5 2.8-.4 6.1-.8 7.5-1 15-2.6 74.9-2.6 90-.1 1.4.3 5.2.7 8.5 1 3.3.4 7.1.8 8.5 1 1.4.3 4.5.7 7 1 8 1.1 29.3 5 39.5 7.2 12.6 2.9 38.8 9.4 48 11.9 10.1 2.8 14.4 2.9 19.5.4 4.5-2.2 7.5-5.4 9.5-10.1 1.3-3.4 1.5-27.7 1.5-229V164.5l-2.3-4c-1.2-2.1-4.2-5.3-6.5-7l-4.4-3h-28.9c-25 0-28.9-.2-29-1.5 0-.8-.1-16.6-.2-35.2l-.2-33.6-3-4.4c-3.9-5.5-9.4-8.5-17-9.3-3.3-.3-6.7-.8-7.5-1-3.5-.9-21.8-1.8-39-1.8-16.6-.1-40.5.9-42 1.8-.3.1-3.6.6-7.5 1-3.8.4-7.2.8-7.5 1-.3.2-2.6.6-5 1-2.5.4-4.9.8-5.5.9-.5.1-3.7.8-7 1.5-20.7 4.4-44.7 12.7-63.6 22-23.8 11.8-42 25-60.6 43.7-7.3 7.3-13.3 12.9-13.3 12.4 0-1.3-12.1-15-20.1-22.7C298.5 96 252 73.9 202 65.7c-9.1-1.5-12.6-2-25-3.3-5.4-.6-42.7-1.3-43.2-.8zm36.7 38.8c11 .9 27.9 3.3 37 5.3 1.1.2 2.9.6 4.1.8 1.1.3 6.7 1.9 12.4 3.6 33.9 10 60.9 25.4 82 46.8 10.1 10.1 12.3 12.9 19.6 23.7l5.4 8.1v358.2l-9.2-6.3c-41.9-28.6-91.7-47.3-145.2-54.6-15.3-2.2-31.9-3.3-50.6-3.4l-15.5-.1.1-39c.2-33 .8-144.5 1.7-304.5l.2-36.5 4-.7c2.2-.4 8.5-1 14-1.4 5.5-.3 10.1-.7 10.2-.8.4-.3 22.4.3 29.8.8zm410 2c2.2.3 5.4.5 7 .5l3 .1-.1 188.5c-.1 103.7-.3 188.7-.6 189-.2.3-11.4.7-24.9.9-13.4.2-26 .7-27.9 1-1.9.4-6.4 1.1-10 1.7-3.6.5-7.8 1.2-9.5 1.5-7 1.1-28.4 6.8-39.3 10.3-31.1 10.3-64.9 26.7-97.8 47.7-5.6 3.5-10.3 6.4-10.5 6.4-.2 0-.4-81.1-.4-180.3V189.4l6-8.4c15.2-21.3 40.9-42.1 68-55 14.8-7 42.9-16.3 56-18.4 8.4-1.4 10.1-1.7 11.5-2.1.8-.2 3.8-.7 6.5-1 2.8-.3 6.6-.7 8.5-1 1.9-.3 9.1-.8 16-1.1 6.9-.4 12.6-.7 12.7-.8.3-.3 21.7.4 25.8.8zM71.6 188.9l2.2.1-.4 66.7c-.3 36.8-.5 108.9-.7 160.4l-.2 93.6 2.8 4c4.2 6 9.1 8.4 17.4 8.2 33.5-.8 65.4-.1 75.4 1.6 1.3.2 8 1.3 14.9 2.4 37.3 6 77 20.8 108.2 40.5 11.2 7 27.8 18.8 27.8 19.8 0 .3-3.3-.5-7.2-1.8-10.7-3.6-35.1-9.6-48.3-11.9-1.6-.3-3.9-.7-5-.9-1.1-.2-4-.7-6.5-1-2.5-.3-5.4-.8-6.5-1-1.2-.2-5.2-.7-9-1.1-3.9-.3-8.1-.8-9.5-1-4.7-.8-25.5-1.5-42.5-1.4-19.7 0-31.6.6-48 2.5-3.3.3-7.1.8-8.5.9-6 .7-15.1 2-24 3.5-3 .5-7.1 1.1-9 1.4-10.5 1.7-35.8 7-48.7 10.4-4 1-7.4 1.6-7.4 1.3-.1-.3-.2-89.7-.3-198.6-.1-156.2.1-198.1 1.1-198.5 1-.4 23.3-.5 31.9-.1zm589.4 0c.3.1.5 89.5.5 198.8 0 174.6-.2 198.8-1.5 198.5-.8-.2-2.2-.5-3-.7l-8-2c-6.1-1.6-7.6-1.9-12.5-2.9-1.1-.2-7.6-1.6-14.5-3-12-2.4-26.7-5-34-6-1.9-.3-5.4-.7-7.7-1-2.4-.4-6.2-.8-8.5-1.2-2.4-.3-5.7-.7-7.4-.9-1.7-.3-7.8-.7-13.5-1.1-5.7-.3-11.5-.8-12.9-1-3.1-.5-40.9-.4-51 .1-12.2.7-20.5 1.5-40.2 4.1-3.6.5-27.7 5.4-34.3 7-1.1.3-2.9.7-4 .9-1.1.3-5.8 1.6-10.4 2.9-9.9 2.9-9.4 2.2 5.4-6.9 6.1-3.7 12.1-7.5 13.5-8.3 19.9-12.8 68.7-34.2 86-37.7.3-.1 5.5-1.3 11.5-2.7 6.1-1.5 12.6-2.9 14.5-3.2 1.9-.3 4.6-.8 5.9-1 13.3-2.8 58.7-2.7 68.4.1 3.8 1 10.7.4 14.4-1.3 4.5-2.2 6.8-4.5 9.2-9.8 1.8-3.6 1.9-10.8 1.9-162.3 0-106.2.3-158.8 1-159.2.8-.5 28.6-.6 31.2-.2z"/></svg>