<?xml version="1.0" encoding="UTF-8" standalone="no"?>
<svg
   xmlns:dc="http://purl.org/dc/elements/1.1/"
   xmlns:cc="http://creativecommons.org/ns#"
   xmlns:rdf="http://www.w3.org/1999/02/22-rdf-syntax-ns#"
   xmlns:svg="http://www.w3.org/2000/svg"
   xmlns="http://www.w3.org/2000/svg"
   xmlns:sodipodi="http://sodipodi.sourceforge.net/DTD/sodipodi-0.dtd"
   xmlns:inkscape="http://www.inkscape.org/namespaces/inkscape"
   version="1.1"
   id="Layer_1"
   x="0px"
   y="0px"
   viewBox="0 0 122.88 122.88"
   xml:space="preserve"
   sodipodi:docname="read-book - fill.svg"
   inkscape:version="1.0.1 (3bc2e813f5, 2020-09-07)"
   width="122.88"
   height="122.88"><metadata
     id="metadata11"><rdf:RDF><cc:Work
         rdf:about=""><dc:format>image/svg+xml</dc:format><dc:type
           rdf:resource="http://purl.org/dc/dcmitype/StillImage" /><dc:title></dc:title></cc:Work></rdf:RDF></metadata><defs
     id="defs9" /><sodipodi:namedview
     pagecolor="#ffffff"
     bordercolor="#666666"
     borderopacity="1"
     objecttolerance="10"
     gridtolerance="10"
     guidetolerance="10"
     inkscape:pageopacity="0"
     inkscape:pageshadow="2"
     inkscape:window-width="1391"
     inkscape:window-height="945"
     id="namedview7"
     showgrid="false"
     inkscape:zoom="2.9645889"
     inkscape:cx="14.141928"
     inkscape:cy="9.0507474"
     inkscape:window-x="0"
     inkscape:window-y="0"
     inkscape:window-maximized="0"
     inkscape:current-layer="Layer_1" /><g
     id="g850"
     transform="translate(0,10.760768)"><g
       id="g4"><path
         d="m 12.64,77.27 0.31,-54.92 h -6.2 v 69.88 c 8.52,-2.2 17.07,-3.6 25.68,-3.66 7.95,-0.05 15.9,1.06 23.87,3.76 C 51.35,88.32 45.83,85.37 39.94,83.45 32.52,81.03 24.5,80.23 16.28,80.93 14.42,81.08 12.8,79.7 12.64,77.85 c -0.02,-0.2 -0.02,-0.39 0,-0.58 z m 90.98,-57.79 c -0.02,-0.16 -0.04,-0.33 -0.04,-0.51 0,-0.17 0.01,-0.34 0.04,-0.51 V 7.34 C 95.82,6.6 87.78,7.46 80.76,10.12 74.2,12.61 68.54,16.7 64.86,22.56 V 85.9 c 5.72,-3.82 11.57,-6.96 17.58,-9.1 6.85,-2.44 13.89,-3.6 21.18,-3.02 z m 6.75,-3.88 h 9.14 c 1.86,0 3.37,1.51 3.37,3.37 v 77.66 c 0,1.86 -1.51,3.37 -3.37,3.37 -0.38,0 -0.75,-0.06 -1.09,-0.18 -9.4,-2.69 -18.74,-4.48 -27.99,-4.54 -9.02,-0.06 -18.03,1.53 -27.08,5.52 -0.56,0.37 -1.23,0.57 -1.92,0.56 -0.68,0.01 -1.35,-0.19 -1.92,-0.56 C 50.47,96.8 41.45,95.22 32.43,95.28 23.18,95.34 13.85,97.13 4.44,99.82 4.1,99.94 3.73,100 3.35,100 1.51,100.01 0,98.5 0,96.64 V 18.97 C 0,17.11 1.51,15.6 3.37,15.6 h 9.61 L 13.04,4.34 c 0.01,-1.62 1.15,-2.96 2.68,-3.28 v 0 c 8.87,-1.85 19.65,-1.39 29.1,2.23 6.53,2.5 12.46,6.49 16.79,12.25 4.37,-5.37 10.21,-9.23 16.78,-11.72 8.98,-3.41 19.34,-4.23 29.09,-2.8 1.68,0.24 2.88,1.69 2.88,3.33 v 0 11.25 z M 68.13,91.82 c 7.45,-2.34 14.89,-3.3 22.33,-3.26 8.61,0.05 17.16,1.46 25.68,3.66 V 22.35 h -5.77 v 55.22 c 0,1.86 -1.51,3.37 -3.37,3.37 -0.27,0 -0.53,-0.03 -0.78,-0.09 -7.38,-1.16 -14.53,-0.2 -21.51,2.29 -5.62,2.01 -11.14,5.01 -16.58,8.68 z M 58.12,85.25 V 22.46 C 54.59,16.23 48.88,12.06 42.43,9.59 35.12,6.79 26.91,6.16 19.75,7.18 l -0.38,66.81 c 7.81,-0.28 15.45,0.71 22.64,3.06 5.72,1.86 11.14,4.59 16.11,8.2 z"
         id="path2" /></g><path
       style="fill:#efefef;fill-opacity:1;stroke:none;stroke-width:0.337315"
       d="M 6.8889447,57.30951 V 22.543343 h 2.8671767 2.8671766 v 28.288454 28.288454 l 0.889285,0.889287 c 0.489107,0.489106 1.058325,0.893874 1.264931,0.899484 0.206605,0.0056 3.563272,0.06229 7.459259,0.125953 9.866738,0.16123 16.095824,1.470632 23.305714,4.899043 3.329905,1.583421 9.067162,5.037384 8.804209,5.300337 -0.07292,0.07292 -1.711185,-0.247845 -3.640596,-0.7128 C 40.536774,88.070912 29.818571,87.789102 18.164649,89.665949 14.589279,90.241756 9.2149622,91.362751 7.4792458,91.894747 6.9197023,92.066248 6.8889447,90.264191 6.8889447,57.30951 Z"
       id="path13" /><path
       style="fill:#efefef;fill-opacity:1;stroke:none;stroke-width:0.337315"
       d="M 56.468207,83.815607 C 52.060363,80.837167 45.384664,77.801016 39.752821,76.213335 34.682638,74.783997 30.546597,74.158534 24.597977,73.921584 L 19.538253,73.720042 19.706911,40.73877 C 19.799673,22.599072 20.001623,7.6310538 20.15569,7.4765079 20.607533,7.023261 29.74665,6.9383148 32.690529,7.3599992 43.204954,8.8660967 52.273765,13.883744 56.731643,20.661614 l 1.091852,1.660076 v 31.143796 c 0,17.12909 -0.04066,31.143799 -0.09036,31.143799 -0.04969,0 -0.618912,-0.357156 -1.264931,-0.793678 z"
       id="path15" /><path
       style="fill:#efefef;fill-opacity:1;stroke:none;stroke-width:0.337315"
       d="m 64.907108,54.191843 v -31.35829 l 1.063886,-1.546306 C 68.601217,17.464348 74.0702,13.181189 78.999751,11.083477 84.927617,8.5609436 91.196622,7.3692052 98.554269,7.3661614 l 4.806741,-0.00199 V 40.369822 73.375471 l -4.975399,0.210012 c -10.201126,0.430593 -19.139271,3.331228 -29.515053,9.57832 l -3.96345,2.386331 z"
       id="path17" /><path
       style="fill:#efefef;fill-opacity:1;stroke:none;stroke-width:0.337315"
       d="m 115.47331,91.886743 c -0.28986,-0.289858 -10.04506,-2.192267 -14.13619,-2.75677 -2.852673,-0.393617 -6.453017,-0.582682 -11.131395,-0.584537 -6.975025,-0.0027 -9.89317,0.270247 -15.979525,1.495017 -1.831619,0.368581 -3.396385,0.603979 -3.477258,0.523105 -0.521808,-0.52181 10.224936,-5.932304 14.818541,-7.460458 6.579769,-2.188894 11.967671,-2.770654 20.624267,-2.226913 2.26655,0.142371 2.34891,0.119008 3.28882,-0.932935 l 0.96405,-1.078963 V 50.703816 22.543343 h 2.69852 2.69852 v 34.743435 c 0,19.108889 -0.0506,34.743435 -0.11244,34.743435 -0.0618,0 -0.177,-0.06456 -0.25591,-0.14347 z"
       id="path19" /></g></svg>
