<?xml version="1.0" encoding="UTF-8" standalone="no"?>
<svg
   xmlns:dc="http://purl.org/dc/elements/1.1/"
   xmlns:cc="http://creativecommons.org/ns#"
   xmlns:rdf="http://www.w3.org/1999/02/22-rdf-syntax-ns#"
   xmlns:svg="http://www.w3.org/2000/svg"
   xmlns="http://www.w3.org/2000/svg"
   xmlns:sodipodi="http://sodipodi.sourceforge.net/DTD/sodipodi-0.dtd"
   xmlns:inkscape="http://www.inkscape.org/namespaces/inkscape"
   version="1.1"
   id="Layer_1"
   x="0px"
   y="0px"
   viewBox="0 0 122.88 122.87999"
   xml:space="preserve"
   sodipodi:docname="read-book - light.svg"
   inkscape:version="1.0.1 (3bc2e813f5, 2020-09-07)"
   width="122.88"
   height="122.88"><metadata
     id="metadata11"><rdf:RDF><cc:Work
         rdf:about=""><dc:format>image/svg+xml</dc:format><dc:type
           rdf:resource="http://purl.org/dc/dcmitype/StillImage" /><dc:title></dc:title></cc:Work></rdf:RDF></metadata><defs
     id="defs9" /><sodipodi:namedview
     pagecolor="#ffffff"
     bordercolor="#666666"
     borderopacity="1"
     objecttolerance="10"
     gridtolerance="10"
     guidetolerance="10"
     inkscape:pageopacity="0"
     inkscape:pageshadow="2"
     inkscape:window-width="958"
     inkscape:window-height="1008"
     id="namedview7"
     showgrid="false"
     inkscape:zoom="1.0481404"
     inkscape:cx="80.016782"
     inkscape:cy="-29.762221"
     inkscape:window-x="-7"
     inkscape:window-y="0"
     inkscape:window-maximized="0"
     inkscape:current-layer="g4" /><g
     id="g4"><path
       d="m 12.64,88.030768 0.31,-54.92 h -6.2 v 69.880002 c 8.52,-2.2 17.07,-3.600002 25.68,-3.660002 7.95,-0.05 15.9,1.060002 23.87,3.760002 -4.95,-4.010002 -10.47,-6.960002 -16.36,-8.880002 -7.42,-2.42 -15.44,-3.22 -23.66,-2.52 -1.86,0.15 -3.48,-1.23 -3.64,-3.08 -0.02,-0.2 -0.02,-0.39 0,-0.58 z m 90.98,-57.79 c -0.02,-0.16 -0.04,-0.33 -0.04,-0.51 0,-0.17 0.01,-0.34 0.04,-0.51 v -11.12 c -7.8,-0.74 -15.84,0.12 -22.86,2.78 -6.56,2.49 -12.22,6.58 -15.9,12.44 v 63.34 c 5.72,-3.82 11.57,-6.96 17.58,-9.1 6.85,-2.44 13.89,-3.6 21.18,-3.02 z m 6.75,-3.88 h 9.14 c 1.86,0 3.37,1.51 3.37,3.37 v 77.660002 c 0,1.86 -1.51,3.37 -3.37,3.37 -0.38,0 -0.75,-0.06 -1.09,-0.18 -9.4,-2.69 -18.74,-4.48 -27.99,-4.54 -9.02,-0.06 -18.03,1.53 -27.08,5.52 -0.56,0.37 -1.23,0.57 -1.92,0.56 -0.68,0.01 -1.35,-0.19 -1.92,-0.56 -9.04,-4 -18.06,-5.58 -27.08,-5.52 -9.25,0.06 -18.58,1.85 -27.99,4.54 -0.34,0.12 -0.71,0.18 -1.09,0.18 -1.84,0.01 -3.35,-1.5 -3.35,-3.36 V 29.730768 c 0,-1.86 1.51,-3.37 3.37,-3.37 h 9.61 l 0.06,-11.26 c 0.01,-1.62 1.15,-2.96 2.68,-3.28 v 0 c 8.87,-1.8500004 19.65,-1.39 29.1,2.23 6.53,2.5 12.46,6.49 16.79,12.25 4.37,-5.37 10.21,-9.23 16.78,-11.72 8.98,-3.41 19.34,-4.23 29.09,-2.8 1.68,0.24 2.88,1.69 2.88,3.33 v 0 11.25 z M 68.13,102.58077 c 7.45,-2.34 14.89,-3.300002 22.33,-3.260002 8.61,0.05 17.16,1.460002 25.68,3.660002 V 33.110768 h -5.77 v 55.22 c 0,1.86 -1.51,3.37 -3.37,3.37 -0.27,0 -0.53,-0.03 -0.78,-0.09 -7.38,-1.16 -14.53,-0.2 -21.51,2.29 -5.62,2.01 -11.14,5.01 -16.58,8.680002 z M 58.12,96.010768 v -62.79 c -3.53,-6.23 -9.24,-10.4 -15.69,-12.87 -7.31,-2.8 -15.52,-3.43 -22.68,-2.41 l -0.38,66.81 c 7.81,-0.28 15.45,0.71 22.64,3.06 5.72,1.86 11.14,4.59 16.11,8.2 z"
       id="path2"
       style="fill:#d5d5d5;fill-opacity:1" /></g></svg>
