<?xml version="1.0" encoding="UTF-8" standalone="no"?>
<svg
   xmlns:osb="http://www.openswatchbook.org/uri/2009/osb"
   xmlns:dc="http://purl.org/dc/elements/1.1/"
   xmlns:cc="http://creativecommons.org/ns#"
   xmlns:rdf="http://www.w3.org/1999/02/22-rdf-syntax-ns#"
   xmlns:svg="http://www.w3.org/2000/svg"
   xmlns="http://www.w3.org/2000/svg"
   xmlns:xlink="http://www.w3.org/1999/xlink"
   xmlns:sodipodi="http://sodipodi.sourceforge.net/DTD/sodipodi-0.dtd"
   xmlns:inkscape="http://www.inkscape.org/namespaces/inkscape"
   version="1.1"
   id="Layer_1"
   x="0px"
   y="0px"
   viewBox="0 0 122.88 122.88"
   xml:space="preserve"
   sodipodi:docname="read-book-fancy.svg"
   inkscape:version="1.0.1 (3bc2e813f5, 2020-09-07)"
   width="122.88"
   height="122.88"><metadata
     id="metadata11"><rdf:RDF><cc:Work
         rdf:about=""><dc:format>image/svg+xml</dc:format><dc:type
           rdf:resource="http://purl.org/dc/dcmitype/StillImage" /><dc:title></dc:title></cc:Work></rdf:RDF></metadata><defs
     id="defs9"><linearGradient
       inkscape:collect="always"
       id="linearGradient3072"><stop
         style="stop-color:#000000;stop-opacity:1;"
         offset="0"
         id="stop3068" /><stop
         style="stop-color:#454545;stop-opacity:1"
         offset="1"
         id="stop3070" /></linearGradient><linearGradient
       id="linearGradient3049"
       osb:paint="gradient"><stop
         style="stop-color:#0f110f;stop-opacity:1"
         offset="0"
         id="stop3047" /><stop
         style="stop-color:#ffffff;stop-opacity:1"
         offset="1"
         id="stop3045" /></linearGradient><linearGradient
       id="linearGradient2913"
       osb:paint="gradient"><stop
         style="stop-color:#ffffff;stop-opacity:1"
         offset="0"
         id="stop3013" /><stop
         style="stop-color:#cccccc;stop-opacity:1"
         offset="1"
         id="stop3015" /></linearGradient><linearGradient
       id="linearGradient2913-4"
       osb:paint="gradient"><stop
         style="stop-color:#ffffff;stop-opacity:1"
         offset="0"
         id="stop2909" /><stop
         style="stop-color:#cccccc;stop-opacity:1"
         offset="1"
         id="stop2911" /></linearGradient><linearGradient
       inkscape:collect="always"
       id="linearGradient2829-7-6"><stop
         style="stop-color:#ffffff;stop-opacity:1"
         offset="0"
         id="stop2827" /><stop
         style="stop-color:#cccccc;stop-opacity:1"
         offset="1"
         id="stop2825" /></linearGradient><linearGradient
       inkscape:collect="always"
       xlink:href="#linearGradient2913-4"
       id="linearGradient2901"
       x1="85.866356"
       y1="51.042778"
       x2="64.876801"
       y2="56.051647"
       gradientUnits="userSpaceOnUse" /><linearGradient
       inkscape:collect="always"
       xlink:href="#linearGradient2829-7-6"
       id="linearGradient2917"
       gradientUnits="userSpaceOnUse"
       x1="37.208755"
       y1="52.473885"
       x2="57.721272"
       y2="55.574612" /><radialGradient
       inkscape:collect="always"
       xlink:href="#linearGradient3072"
       id="radialGradient3074"
       cx="327.41666"
       cy="38.126434"
       fx="327.41666"
       fy="38.126434"
       r="61.44"
       gradientTransform="matrix(-2.1978804e-6,2.0368017,-0.85323468,0,92.709462,-623.06619)"
       gradientUnits="userSpaceOnUse" /></defs><sodipodi:namedview
     pagecolor="#ffffff"
     bordercolor="#666666"
     borderopacity="1"
     objecttolerance="10"
     gridtolerance="10"
     guidetolerance="10"
     inkscape:pageopacity="0"
     inkscape:pageshadow="2"
     inkscape:window-width="1391"
     inkscape:window-height="945"
     id="namedview7"
     showgrid="false"
     inkscape:zoom="2.0962809"
     inkscape:cx="64.21643"
     inkscape:cy="29.369049"
     inkscape:window-x="262"
     inkscape:window-y="56"
     inkscape:window-maximized="0"
     inkscape:current-layer="g4"
     inkscape:document-rotation="0" /><g
     id="g4"
     transform="translate(0,10.760768)"><path
       d="m 12.64,77.27 0.31,-54.92 h -6.2 v 69.88 c 8.52,-2.2 17.07,-3.6 25.68,-3.66 7.95,-0.05 15.9,1.06 23.87,3.76 C 51.35,88.32 45.83,85.37 39.94,83.45 32.52,81.03 24.5,80.23 16.28,80.93 14.42,81.08 12.8,79.7 12.64,77.85 c -0.02,-0.2 -0.02,-0.39 0,-0.58 z m 90.98,-57.79 c -0.02,-0.16 -0.04,-0.33 -0.04,-0.51 0,-0.17 0.01,-0.34 0.04,-0.51 V 7.34 C 95.82,6.6 87.78,7.46 80.76,10.12 74.2,12.61 68.54,16.7 64.86,22.56 V 85.9 c 5.72,-3.82 11.57,-6.96 17.58,-9.1 6.85,-2.44 13.89,-3.6 21.18,-3.02 z m 6.75,-3.88 h 9.14 c 1.86,0 3.37,1.51 3.37,3.37 v 77.66 c 0,1.86 -1.51,3.37 -3.37,3.37 -0.38,0 -0.75,-0.06 -1.09,-0.18 -9.4,-2.69 -18.74,-4.48 -27.99,-4.54 -9.02,-0.06 -18.03,1.53 -27.08,5.52 -0.56,0.37 -1.23,0.57 -1.92,0.56 -0.68,0.01 -1.35,-0.19 -1.92,-0.56 C 50.47,96.8 41.45,95.22 32.43,95.28 23.18,95.34 13.85,97.13 4.44,99.82 4.1,99.94 3.73,100 3.35,100 1.51,100.01 0,98.5 0,96.64 V 18.97 C 0,17.11 1.51,15.6 3.37,15.6 h 9.61 L 13.04,4.34 c 0.01,-1.62 1.15,-2.96 2.68,-3.28 v 0 c 8.87,-1.85 19.65,-1.39 29.1,2.23 6.53,2.5 12.46,6.49 16.79,12.25 4.37,-5.37 10.21,-9.23 16.78,-11.72 8.98,-3.41 19.34,-4.23 29.09,-2.8 1.68,0.24 2.88,1.69 2.88,3.33 v 0 11.25 z M 68.13,91.82 c 7.45,-2.34 14.89,-3.3 22.33,-3.26 8.61,0.05 17.16,1.46 25.68,3.66 V 22.35 h -5.77 v 55.22 c 0,1.86 -1.51,3.37 -3.37,3.37 -0.27,0 -0.53,-0.03 -0.78,-0.09 -7.38,-1.16 -14.53,-0.2 -21.51,2.29 -5.62,2.01 -11.14,5.01 -16.58,8.68 z M 58.12,85.25 V 22.46 C 54.59,16.23 48.88,12.06 42.43,9.59 35.12,6.79 26.91,6.16 19.75,7.18 l -0.38,66.81 c 7.81,-0.28 15.45,0.71 22.64,3.06 5.72,1.86 11.14,4.59 16.11,8.2 z"
       id="path2"
       style="fill:url(#radialGradient3074);fill-opacity:1" /></g><path
     style="fill:#e6e6e6;fill-opacity:1;stroke:none;stroke-width:0.337315"
     d="M 6.8889447,68.070278 V 33.304111 h 2.8671767 2.8671766 v 28.288454 28.288454 l 0.889285,0.889287 c 0.489107,0.489106 1.058325,0.893874 1.264931,0.899484 0.206605,0.0056 3.563272,0.06229 7.459259,0.125953 9.866738,0.16123 16.095824,1.470632 23.305714,4.899043 3.329905,1.583421 9.067162,5.037384 8.804209,5.300334 -0.07292,0.0729 -1.711185,-0.24784 -3.640596,-0.7128 -10.169326,-2.45064 -20.887529,-2.73245 -32.541451,-0.8556 -3.57537,0.5758 -8.9496868,1.6968 -10.6854032,2.22879 -0.5595435,0.17151 -0.5903011,-1.63055 -0.5903011,-34.585232 z"
     id="path13" /><path
     style="fill:url(#linearGradient2917);fill-opacity:1;stroke:none;stroke-width:0.337315;opacity:1"
     d="M 56.468207,94.576375 C 52.060363,91.597935 45.384664,88.561784 39.752821,86.974103 34.682638,85.544765 30.546597,84.919302 24.597977,84.682352 L 19.538253,84.48081 19.706911,51.499538 c 0.09276,-18.139698 0.294712,-33.107716 0.448779,-33.262262 0.451843,-0.453247 9.59096,-0.538193 12.534839,-0.116509 10.514425,1.506098 19.583236,6.523745 24.041114,13.301615 l 1.091852,1.660076 v 31.143796 c 0,17.12909 -0.04066,31.143799 -0.09036,31.143799 -0.04969,0 -0.618912,-0.357156 -1.264931,-0.793678 z"
     id="path15" /><path
     style="fill:url(#linearGradient2901);fill-opacity:1;stroke:none;stroke-width:0.337;stroke-miterlimit:4;stroke-dasharray:none"
     d="m 64.907108,64.952611 v -31.35829 l 1.063886,-1.546306 c 2.630223,-3.822899 8.099206,-8.106058 13.028757,-10.20377 5.927866,-2.522533 12.196871,-3.714272 19.554518,-3.717316 l 4.806741,-0.002 V 51.13059 84.136239 l -4.975399,0.210012 c -10.201126,0.430593 -19.139271,3.331228 -29.515053,9.57832 l -3.96345,2.386331 z"
     id="path17" /><path
     style="fill:#e6e6e6;fill-opacity:1;stroke:none;stroke-width:0.337315"
     d="m 115.47331,102.64751 c -0.28986,-0.28986 -10.04506,-2.19227 -14.13619,-2.756769 -2.852673,-0.393617 -6.453017,-0.582682 -11.131395,-0.584537 -6.975025,-0.0027 -9.89317,0.270247 -15.979525,1.495016 -1.831619,0.36858 -3.396385,0.60398 -3.477258,0.52311 -0.521808,-0.52181 10.224936,-5.932308 14.818541,-7.460462 6.579769,-2.188894 11.967671,-2.770654 20.624267,-2.226913 2.26655,0.142371 2.34891,0.119008 3.28882,-0.932935 l 0.96405,-1.078963 V 61.464584 33.304111 h 2.69852 2.69852 v 34.743435 c 0,19.108889 -0.0506,34.743434 -0.11244,34.743434 -0.0618,0 -0.177,-0.0646 -0.25591,-0.14347 z"
     id="path19" /></svg>
